<svg xmlns="http://www.w3.org/2000/svg" viewBox="0 0 920 200"><defs><style>.a,.b{fill:#e1e1e1;}.a{fill-rule:evenodd;}.c{fill:#3cb478;}</style></defs><path class="a" d="M325,132v16a2,2,0,0,1-2,2H295a30,30,0,0,1-30-30V72a2,2,0,0,1,2-2h16a2,2,0,0,1,2,2v48a10,10,0,0,0,10,10h28A2,2,0,0,1,325,132Z"/><rect class="b" x="345" y="90" width="20" height="60" rx="2"/><rect class="b" x="345" y="60" width="20" height="20" rx="2"/><rect class="b" x="735" y="90" width="20" height="60" rx="2"/><rect class="b" x="735" y="60" width="20" height="20" rx="2"/><path class="a" d="M695,148V100a10,10,0,0,0-10-10h-8a2,2,0,0,0-2,2v56a2,2,0,0,1-2,2H657a2,2,0,0,1-2-2V92a2,2,0,0,0-2-2H637a2,2,0,0,0-2,2v56a2,2,0,0,1-2,2H617a2,2,0,0,1-2-2V72a2,2,0,0,1,2-2h68a30,30,0,0,1,30,30v48a2,2,0,0,1-2,2H697A2,2,0,0,1,695,148Z"/><path class="a" d="M445,120v28a2,2,0,0,1-2,2H427a2,2,0,0,1-2-2V120a10,10,0,0,0-10-10h-8a2,2,0,0,0-2,2v36a2,2,0,0,1-2,2H387a2,2,0,0,1-2-2V92a2,2,0,0,1,2-2h28A30,30,0,0,1,445,120Z"/><path class="a" d="M835,120v28a2,2,0,0,1-2,2H817a2,2,0,0,1-2-2V120a10,10,0,0,0-10-10h-8a2,2,0,0,0-2,2v36a2,2,0,0,1-2,2H777a2,2,0,0,1-2-2V92a2,2,0,0,1,2-2h28A30,30,0,0,1,835,120Z"/><path class="a" d="M520,148V92a2,2,0,0,0-2-2H502a2,2,0,0,0-2,2v36a2,2,0,0,1-2,2h-8a10,10,0,0,1-10-10V92a2,2,0,0,0-2-2H462a2,2,0,0,0-2,2v28a30,30,0,0,0,30,30h28A2,2,0,0,0,520,148Z"/><path class="a" d="M537.07,146.89l37.34-56a2,2,0,0,1,1.66-.89h15.19a2,2,0,0,1,1.67,3.11l-37.34,56a2,2,0,0,1-1.66.89H538.74A2,2,0,0,1,537.07,146.89Z"/><path class="a" d="M574.41,149.11l-37.34-56A2,2,0,0,1,538.74,90h15.19a2,2,0,0,1,1.66.89l37.34,56a2,2,0,0,1-1.67,3.11H576.07A2,2,0,0,1,574.41,149.11Z"/><path class="a" d="M575.74,121.11l17.19,25.78a2,2,0,0,1-1.67,3.11H576.07a2,2,0,0,1-1.66-.89l-7.75-11.61a2,2,0,0,0-3.32,0l-7.75,11.61a2,2,0,0,1-1.66.89H538.74a2,2,0,0,1-1.67-3.11l17.19-25.78a2,2,0,0,0,0-2.22L537.07,93.11A2,2,0,0,1,538.74,90h15.19a2,2,0,0,1,1.66.89l7.75,11.61a2,2,0,0,0,3.32,0l7.75-11.61a2,2,0,0,1,1.66-.89h15.19a2,2,0,0,1,1.67,3.11l-17.19,25.78A2,2,0,0,0,575.74,121.11Z"/><path class="a" d="M865,148V112a2,2,0,0,0-2-2H852a2,2,0,0,1-2-2V92a2,2,0,0,1,2-2h11a2,2,0,0,0,2-2V72a2,2,0,0,1,2-2h16a2,2,0,0,1,2,2V88a2,2,0,0,0,2,2h16a2,2,0,0,1,2,2v16a2,2,0,0,1-2,2H887a2,2,0,0,0-2,2v36a2,2,0,0,1-2,2H867A2,2,0,0,1,865,148Z"/><path class="c" d="M225,185V55a45,45,0,0,0-45-45H80a5,5,0,0,0-5,5V125a5,5,0,0,0,5,5h20a5,5,0,0,0,5-5V45a5,5,0,0,1,5-5h20a5,5,0,0,1,5,5v80a5,5,0,0,0,5,5h20a5,5,0,0,0,5-5V45a5,5,0,0,1,5-5h10a15,15,0,0,1,15,15V155a5,5,0,0,1-5,5H60a15,15,0,0,1-15-15V15a5,5,0,0,0-5-5H20a5,5,0,0,0-5,5V145a45,45,0,0,0,45,45H220A5,5,0,0,0,225,185Z"/></svg>