<svg xmlns="http://www.w3.org/2000/svg" viewBox="0 0 650 100"><defs><style>.a,.b{fill:#3cb478;}.a{fill-rule:evenodd;}</style></defs><path class="a" d="M65,77V93a2,2,0,0,1-2,2H35A30,30,0,0,1,5,65V17a2,2,0,0,1,2-2H23a2,2,0,0,1,2,2V65A10,10,0,0,0,35,75H63A2,2,0,0,1,65,77Z"/><rect class="b" x="85" y="35" width="20" height="60" rx="2"/><rect class="b" x="85" y="5" width="20" height="20" rx="2"/><rect class="b" x="475" y="35" width="20" height="60" rx="2"/><rect class="b" x="475" y="5" width="20" height="20" rx="2"/><path class="a" d="M435,93V45a10,10,0,0,0-10-10h-8a2,2,0,0,0-2,2V93a2,2,0,0,1-2,2H397a2,2,0,0,1-2-2V37a2,2,0,0,0-2-2H377a2,2,0,0,0-2,2V93a2,2,0,0,1-2,2H357a2,2,0,0,1-2-2V17a2,2,0,0,1,2-2h68a30,30,0,0,1,30,30V93a2,2,0,0,1-2,2H437A2,2,0,0,1,435,93Z"/><path class="a" d="M185,65V93a2,2,0,0,1-2,2H167a2,2,0,0,1-2-2V65a10,10,0,0,0-10-10h-8a2,2,0,0,0-2,2V93a2,2,0,0,1-2,2H127a2,2,0,0,1-2-2V37a2,2,0,0,1,2-2h28A30,30,0,0,1,185,65Z"/><path class="a" d="M575,65V93a2,2,0,0,1-2,2H557a2,2,0,0,1-2-2V65a10,10,0,0,0-10-10h-8a2,2,0,0,0-2,2V93a2,2,0,0,1-2,2H517a2,2,0,0,1-2-2V37a2,2,0,0,1,2-2h28A30,30,0,0,1,575,65Z"/><path class="a" d="M260,93V37a2,2,0,0,0-2-2H242a2,2,0,0,0-2,2V73a2,2,0,0,1-2,2h-8a10,10,0,0,1-10-10V37a2,2,0,0,0-2-2H202a2,2,0,0,0-2,2V65a30,30,0,0,0,30,30h28A2,2,0,0,0,260,93Z"/><path class="a" d="M277.07,91.89l37.34-56a2,2,0,0,1,1.66-.89h15.19a2,2,0,0,1,1.67,3.11l-37.34,56a2,2,0,0,1-1.66.89H278.74A2,2,0,0,1,277.07,91.89Z"/><path class="a" d="M314.41,94.11l-37.34-56A2,2,0,0,1,278.74,35h15.19a2,2,0,0,1,1.66.89l37.34,56A2,2,0,0,1,331.26,95H316.07A2,2,0,0,1,314.41,94.11Z"/><path class="a" d="M315.74,66.11l17.19,25.78A2,2,0,0,1,331.26,95H316.07a2,2,0,0,1-1.66-.89L306.66,82.5a2,2,0,0,0-3.32,0l-7.75,11.61a2,2,0,0,1-1.66.89H278.74a2,2,0,0,1-1.67-3.11l17.19-25.78a2,2,0,0,0,0-2.22L277.07,38.11A2,2,0,0,1,278.74,35h15.19a2,2,0,0,1,1.66.89l7.75,11.61a2,2,0,0,0,3.32,0l7.75-11.61a2,2,0,0,1,1.66-.89h15.19a2,2,0,0,1,1.67,3.11L315.74,63.89A2,2,0,0,0,315.74,66.11Z"/><path class="a" d="M605,93V57a2,2,0,0,0-2-2H592a2,2,0,0,1-2-2V37a2,2,0,0,1,2-2h11a2,2,0,0,0,2-2V17a2,2,0,0,1,2-2h16a2,2,0,0,1,2,2V33a2,2,0,0,0,2,2h16a2,2,0,0,1,2,2V53a2,2,0,0,1-2,2H627a2,2,0,0,0-2,2V93a2,2,0,0,1-2,2H607A2,2,0,0,1,605,93Z"/></svg>