<svg xmlns="http://www.w3.org/2000/svg" width="3756.566" height="325" viewBox="0 0 1878.283 162.5" fill="#123354"><path d="M0 0h253.229v34.08L74.705 127.969h178.524V162.5H0v-34.08l178.524-93.889H0zm484.993 162.5H335.357q-10.382 0-19.635-3.837-9.028-4.062-16.024-10.833-6.771-6.997-10.833-16.024-3.837-9.253-3.837-19.635V50.33q0-10.382 3.837-19.41 4.063-9.253 10.833-16.024 6.997-6.997 16.024-10.833Q324.975 0 335.357 0h149.635q10.382 0 19.41 4.063 9.253 3.837 16.024 10.833 6.996 6.771 10.833 16.024 4.063 9.028 4.063 19.41v61.84q0 10.382-4.062 19.635-3.837 9.028-10.833 16.024-6.771 6.771-16.024 10.833-9.028 3.837-19.41 3.837zm15.799-62.969V63.194q0-5.868-2.031-10.833-2.031-5.191-5.868-9.253-3.611-4.063-8.802-6.319-5.191-2.257-11.285-2.257H348.673q-6.319 0-11.736 2.031-5.191 2.031-9.253 6.094-3.837 3.837-6.094 9.028-2.031 5.191-2.031 11.285v36.788q0 5.642 2.031 10.833 2.031 5.191 5.868 9.253 3.837 3.837 9.028 6.094 5.191 2.031 11.51 2.031h123.906q6.545 0 11.736-2.257 5.417-2.257 9.253-6.094 3.837-4.062 5.868-9.253 2.031-5.191 2.031-10.833zM818.77 162.5h-42.205l-32.274-46.944H606.166V162.5h-34.531V0h199.288q10.608 0 19.635 3.837 9.253 3.837 16.024 10.156 6.997 6.319 10.833 14.67 4.063 8.125 4.063 16.701v23.698q0 7.222-3.16 14.67-2.934 7.448-8.125 13.767-4.965 6.319-11.736 10.833-6.545 4.288-13.542 5.642zM786.947 60.712v-6.771q0-3.837-1.806-7.448-1.58-3.611-4.74-6.094-3.16-2.708-7.674-4.288-4.288-1.58-9.705-1.58H606.166v46.493h156.858q6.545 0 11.059-1.806 4.514-1.806 7.222-4.74 2.934-2.934 4.288-6.545 1.354-3.611 1.354-7.222zM866.819 0h34.531v162.5h-34.531zm294.055 123.455V0h34.531v162.5h-43.333L983.478 39.271V162.5h-34.531V0h43.559zM1537.96 162.5h-149.635q-10.382 0-19.635-3.837-9.028-4.062-16.024-10.833-6.771-6.997-10.833-16.024-3.837-9.253-3.837-19.635V50.33q0-10.382 3.837-19.41 4.063-9.253 10.833-16.024 6.997-6.997 16.024-10.833Q1377.943 0 1388.325 0h149.635q10.382 0 19.41 4.063 9.254 3.837 16.024 10.833 6.996 6.771 10.833 16.024 4.063 9.028 4.063 19.41v61.84q0 10.382-4.062 19.635-3.837 9.028-10.833 16.024-6.771 6.771-16.024 10.833-9.028 3.837-19.41 3.837zm15.799-62.969V63.194q0-5.868-2.031-10.833-2.031-5.191-5.868-9.253-3.611-4.063-8.802-6.319-5.191-2.257-11.285-2.257h-124.132q-6.319 0-11.736 2.031-5.191 2.031-9.254 6.094-3.837 3.837-6.094 9.028-2.031 5.191-2.031 11.285v36.788q0 5.642 2.031 10.833 2.031 5.191 5.868 9.253 3.837 3.837 9.028 6.094 5.191 2.031 11.51 2.031h123.906q6.545 0 11.736-2.257 5.417-2.257 9.253-6.094 3.837-4.062 5.868-9.253 2.031-5.191 2.031-10.833zm324.524-42.656q0-10.156-3.837-20.313-3.837-10.156-10.833-18.281-6.771-8.125-16.476-13.09Q1837.433 0 1825.696 0h-152.795q-10.382 0-19.635 4.063-9.253 3.837-16.25 10.833-6.771 6.771-10.833 16.024-3.837 9.028-3.837 19.635 0 11.51 4.288 20.313 4.288 8.802 11.51 14.67 7.448 5.868 16.927 9.028 9.705 2.934 20.087 2.934h145.799q5.417 0 9.705.451 4.514.451 7.448 2.031 3.16 1.354 4.74 3.837 1.58 2.257 1.58 6.319 0 3.385-1.806 6.771-1.806 3.385-4.965 5.868-3.16 2.257-7.448 3.837-4.288 1.354-9.253 1.354h-136.319q-7.448 0-12.865-2.031-5.417-2.031-8.802-5.191-3.16-3.385-4.74-7.448-1.354-4.062-1.354-7.674h-34.531q0 10.156 3.837 20.313 3.837 10.156 10.833 18.281 6.997 8.125 16.476 13.316 9.705 4.965 21.441 4.965h152.795q10.608 0 19.635-3.837 9.253-4.062 16.024-10.833 6.997-6.997 10.833-16.25 4.063-9.253 4.063-19.635 0-11.285-4.062-19.861-3.837-8.802-10.833-14.444-6.997-5.868-16.25-8.802-9.253-2.934-20.087-2.934h-148.281q-11.51 0-17.378-3.385-5.642-3.385-5.642-9.705 0-4.514 1.806-7.899 1.806-3.385 4.74-5.642 2.934-2.483 6.997-3.611 4.063-1.128 8.351-1.128h138.576q6.997 0 12.188 2.031 5.191 2.031 8.576 5.417 3.611 3.16 5.191 6.997 1.58 3.837 1.58 7.899z"/></svg>
